<svg width="151" height="39" viewBox="0 0 151 39" fill="none" xmlns="http://www.w3.org/2000/svg">
<g clip-path="url(#clip0_4_10)">
<path d="M59.94 21.86C60.6867 21.9933 61.32 22.3867 61.84 23.04C62.36 23.6933 62.62 24.4333 62.62 25.26C62.62 25.9667 62.4333 26.6067 62.06 27.18C61.7 27.74 61.1733 28.1867 60.48 28.52C59.7867 28.84 58.98 29 58.06 29H52.5V15.1H57.8C58.7467 15.1 59.56 15.26 60.24 15.58C60.92 15.9 61.4333 16.3333 61.78 16.88C62.1267 17.4133 62.3 18.0133 62.3 18.68C62.3 19.48 62.0867 20.1467 61.66 20.68C61.2333 21.2133 60.66 21.6067 59.94 21.86ZM54.78 20.94H57.6C58.3467 20.94 58.9267 20.7733 59.34 20.44C59.7667 20.0933 59.98 19.6 59.98 18.96C59.98 18.3333 59.7667 17.8467 59.34 17.5C58.9267 17.14 58.3467 16.96 57.6 16.96H54.78V20.94ZM57.86 27.14C58.6333 27.14 59.24 26.9533 59.68 26.58C60.12 26.2067 60.34 25.6867 60.34 25.02C60.34 24.34 60.1067 23.8 59.64 23.4C59.1733 23 58.5533 22.8 57.78 22.8H54.78V27.14H57.86ZM75.0777 17.98V29H72.7977V27.7C72.4377 28.1533 71.9643 28.5133 71.3777 28.78C70.8043 29.0333 70.191 29.16 69.5377 29.16C68.671 29.16 67.891 28.98 67.1977 28.62C66.5177 28.26 65.9777 27.7267 65.5777 27.02C65.191 26.3133 64.9977 25.46 64.9977 24.46V17.98H67.2577V24.12C67.2577 25.1067 67.5043 25.8667 67.9977 26.4C68.491 26.92 69.1643 27.18 70.0177 27.18C70.871 27.18 71.5443 26.92 72.0377 26.4C72.5443 25.8667 72.7977 25.1067 72.7977 24.12V17.98H75.0777ZM88.0059 17.98L81.2459 34.18H78.8859L81.1259 28.82L76.7859 17.98H79.3259L82.4259 26.38L85.6459 17.98H88.0059ZM102.362 21.86C103.109 21.9933 103.742 22.3867 104.262 23.04C104.782 23.6933 105.042 24.4333 105.042 25.26C105.042 25.9667 104.855 26.6067 104.482 27.18C104.122 27.74 103.595 28.1867 102.902 28.52C102.209 28.84 101.402 29 100.482 29H94.9219V15.1H100.222C101.169 15.1 101.982 15.26 102.662 15.58C103.342 15.9 103.855 16.3333 104.202 16.88C104.549 17.4133 104.722 18.0133 104.722 18.68C104.722 19.48 104.509 20.1467 104.082 20.68C103.655 21.2133 103.082 21.6067 102.362 21.86ZM97.2019 20.94H100.022C100.769 20.94 101.349 20.7733 101.762 20.44C102.189 20.0933 102.402 19.6 102.402 18.96C102.402 18.3333 102.189 17.8467 101.762 17.5C101.349 17.14 100.769 16.96 100.022 16.96H97.2019V20.94ZM100.282 27.14C101.055 27.14 101.662 26.9533 102.102 26.58C102.542 26.2067 102.762 25.6867 102.762 25.02C102.762 24.34 102.529 23.8 102.062 23.4C101.595 23 100.975 22.8 100.202 22.8H97.2019V27.14H100.282ZM117.62 23.22C117.62 23.6333 117.593 24.0067 117.54 24.34H109.12C109.186 25.22 109.513 25.9267 110.1 26.46C110.686 26.9933 111.406 27.26 112.26 27.26C113.486 27.26 114.353 26.7467 114.86 25.72H117.32C116.986 26.7333 116.38 27.5667 115.5 28.22C114.633 28.86 113.553 29.18 112.26 29.18C111.206 29.18 110.26 28.9467 109.42 28.48C108.593 28 107.94 27.3333 107.46 26.48C106.993 25.6133 106.76 24.6133 106.76 23.48C106.76 22.3467 106.986 21.3533 107.44 20.5C107.906 19.6333 108.553 18.9667 109.38 18.5C110.22 18.0333 111.18 17.8 112.26 17.8C113.3 17.8 114.226 18.0267 115.04 18.48C115.853 18.9333 116.486 19.5733 116.94 20.4C117.393 21.2133 117.62 22.1533 117.62 23.22ZM115.24 22.5C115.226 21.66 114.926 20.9867 114.34 20.48C113.753 19.9733 113.026 19.72 112.16 19.72C111.373 19.72 110.7 19.9733 110.14 20.48C109.58 20.9733 109.246 21.6467 109.14 22.5H115.24ZM119.103 23.44C119.103 22.3333 119.33 21.3533 119.783 20.5C120.25 19.6467 120.877 18.9867 121.663 18.52C122.463 18.04 123.343 17.8 124.303 17.8C125.17 17.8 125.923 17.9733 126.563 18.32C127.217 18.6533 127.737 19.0733 128.123 19.58V17.98H130.423V29H128.123V27.36C127.737 27.88 127.21 28.3133 126.543 28.66C125.877 29.0067 125.117 29.18 124.263 29.18C123.317 29.18 122.45 28.94 121.663 28.46C120.877 27.9667 120.25 27.2867 119.783 26.42C119.33 25.54 119.103 24.5467 119.103 23.44ZM128.123 23.48C128.123 22.72 127.963 22.06 127.643 21.5C127.337 20.94 126.93 20.5133 126.423 20.22C125.917 19.9267 125.37 19.78 124.783 19.78C124.197 19.78 123.65 19.9267 123.143 20.22C122.637 20.5 122.223 20.92 121.903 21.48C121.597 22.0267 121.443 22.68 121.443 23.44C121.443 24.2 121.597 24.8667 121.903 25.44C122.223 26.0133 122.637 26.4533 123.143 26.76C123.663 27.0533 124.21 27.2 124.783 27.2C125.37 27.2 125.917 27.0533 126.423 26.76C126.93 26.4667 127.337 26.04 127.643 25.48C127.963 24.9067 128.123 24.24 128.123 23.48ZM136.078 19.84V25.94C136.078 26.3533 136.171 26.6533 136.358 26.84C136.558 27.0133 136.891 27.1 137.358 27.1H138.758V29H136.958C135.931 29 135.145 28.76 134.598 28.28C134.051 27.8 133.778 27.02 133.778 25.94V19.84H132.478V17.98H133.778V15.24H136.078V17.98H138.758V19.84H136.078ZM144.859 29.18C143.993 29.18 143.213 29.0267 142.519 28.72C141.839 28.4 141.299 27.9733 140.899 27.44C140.499 26.8933 140.286 26.2867 140.259 25.62H142.619C142.659 26.0867 142.879 26.48 143.279 26.8C143.693 27.1067 144.206 27.26 144.819 27.26C145.459 27.26 145.953 27.14 146.299 26.9C146.659 26.6467 146.839 26.3267 146.839 25.94C146.839 25.5267 146.639 25.22 146.239 25.02C145.853 24.82 145.233 24.6 144.379 24.36C143.553 24.1333 142.879 23.9133 142.359 23.7C141.839 23.4867 141.386 23.16 140.999 22.72C140.626 22.28 140.439 21.7 140.439 20.98C140.439 20.3933 140.613 19.86 140.959 19.38C141.306 18.8867 141.799 18.5 142.439 18.22C143.093 17.94 143.839 17.8 144.679 17.8C145.933 17.8 146.939 18.12 147.699 18.76C148.473 19.3867 148.886 20.2467 148.939 21.34H146.659C146.619 20.8467 146.419 20.4533 146.059 20.16C145.699 19.8667 145.213 19.72 144.599 19.72C143.999 19.72 143.539 19.8333 143.219 20.06C142.899 20.2867 142.739 20.5867 142.739 20.96C142.739 21.2533 142.846 21.5 143.059 21.7C143.273 21.9 143.533 22.06 143.839 22.18C144.146 22.2867 144.599 22.4267 145.199 22.6C145.999 22.8133 146.653 23.0333 147.159 23.26C147.679 23.4733 148.126 23.7933 148.499 24.22C148.873 24.6467 149.066 25.2133 149.079 25.92C149.079 26.5467 148.906 27.1067 148.559 27.6C148.213 28.0933 147.719 28.48 147.079 28.76C146.453 29.04 145.713 29.18 144.859 29.18Z" fill="white"/>
<path d="M19.5162 25.35C20.6733 25.35 21.8043 25.0069 22.7663 24.3641C23.7284 23.7213 24.4782 22.8076 24.9209 21.7387C25.3637 20.6697 25.4796 19.4935 25.2538 18.3587C25.0281 17.2239 24.471 16.1815 23.6528 15.3634C22.8347 14.5453 21.7923 13.9881 20.6575 13.7624C19.5227 13.5367 18.3465 13.6525 17.2775 14.0953C16.2086 14.5381 15.295 15.2879 14.6521 16.2499C14.0093 17.2119 13.6662 18.343 13.6662 19.5C13.6662 21.0515 14.2826 22.5395 15.3797 23.6366C16.4768 24.7336 17.9647 25.35 19.5162 25.35ZM19.5162 0.00323533C17.532 0.00280091 15.5592 0.305285 13.6662 0.900235V11.7C15.4233 10.3822 17.5739 9.69621 19.7696 9.75328C21.9652 9.81034 24.0773 10.6071 25.7635 12.0144C27.4498 13.4217 28.6115 15.3572 29.0604 17.5072C29.5093 19.6572 29.2192 21.8958 28.2369 23.8603C27.2547 25.8248 25.6379 27.4001 23.6485 28.331C21.6592 29.2619 19.4138 29.4938 17.2762 28.9892C15.1385 28.4845 13.2339 27.2729 11.8709 25.5507C10.5078 23.8284 9.76624 21.6964 9.76624 19.5V2.60486C5.66731 4.96553 2.56635 8.73584 1.04114 13.2133C-0.484071 17.6908 -0.329518 22.5701 1.476 26.942C3.28153 31.314 6.61487 34.8805 10.855 36.977C15.0951 39.0735 19.9528 39.5571 24.523 38.3376C29.0933 37.1181 33.0643 34.2788 35.6963 30.3485C38.3283 26.4183 39.4417 21.6653 38.8291 16.975C38.2165 12.2847 35.9197 7.97706 32.3666 4.85465C28.8134 1.73224 24.2464 0.00801962 19.5162 0.00323533Z" fill="white"/>
</g>
<defs>
<clipPath id="clip0_4_10">
<rect width="151" height="39" fill="white"/>
</clipPath>
</defs>
</svg>
