<svg width="40" height="40" viewBox="0 0 40 40" fill="none" xmlns="http://www.w3.org/2000/svg">
<path d="M19.6667 3C24.195 3 24.76 3.01667 26.5367 3.1C28.3117 3.18333 29.52 3.46167 30.5833 3.875C31.6833 4.29833 32.61 4.87167 33.5367 5.79667C34.3842 6.62983 35.0399 7.63765 35.4583 8.75C35.87 9.81167 36.15 11.0217 36.2333 12.7967C36.3117 14.5733 36.3333 15.1383 36.3333 19.6667C36.3333 24.195 36.3167 24.76 36.2333 26.5367C36.15 28.3117 35.87 29.52 35.4583 30.5833C35.0411 31.6963 34.3852 32.7044 33.5367 33.5367C32.7033 34.3839 31.6955 35.0396 30.5833 35.4583C29.5217 35.87 28.3117 36.15 26.5367 36.2333C24.76 36.3117 24.195 36.3333 19.6667 36.3333C15.1383 36.3333 14.5733 36.3167 12.7967 36.2333C11.0217 36.15 9.81333 35.87 8.75 35.4583C7.63721 35.0408 6.62921 34.3849 5.79667 33.5367C4.94901 32.7036 4.29322 31.6958 3.875 30.5833C3.46167 29.5217 3.18333 28.3117 3.1 26.5367C3.02167 24.76 3 24.195 3 19.6667C3 15.1383 3.01667 14.5733 3.1 12.7967C3.18333 11.02 3.46167 9.81333 3.875 8.75C4.29206 7.63697 4.94801 6.62887 5.79667 5.79667C6.62945 4.94872 7.63738 4.29288 8.75 3.875C9.81333 3.46167 11.02 3.18333 12.7967 3.1C14.5733 3.02167 15.1383 3 19.6667 3ZM19.6667 11.3333C17.4565 11.3333 15.3369 12.2113 13.7741 13.7741C12.2113 15.3369 11.3333 17.4565 11.3333 19.6667C11.3333 21.8768 12.2113 23.9964 13.7741 25.5592C15.3369 27.122 17.4565 28 19.6667 28C21.8768 28 23.9964 27.122 25.5592 25.5592C27.122 23.9964 28 21.8768 28 19.6667C28 17.4565 27.122 15.3369 25.5592 13.7741C23.9964 12.2113 21.8768 11.3333 19.6667 11.3333ZM30.5 10.9167C30.5 10.3641 30.2805 9.83423 29.8898 9.44353C29.4991 9.05283 28.9692 8.83333 28.4167 8.83333C27.8641 8.83333 27.3342 9.05283 26.9435 9.44353C26.5528 9.83423 26.3333 10.3641 26.3333 10.9167C26.3333 11.4692 26.5528 11.9991 26.9435 12.3898C27.3342 12.7805 27.8641 13 28.4167 13C28.9692 13 29.4991 12.7805 29.8898 12.3898C30.2805 11.9991 30.5 11.4692 30.5 10.9167ZM19.6667 14.6667C20.9927 14.6667 22.2645 15.1934 23.2022 16.1311C24.1399 17.0688 24.6667 18.3406 24.6667 19.6667C24.6667 20.9927 24.1399 22.2645 23.2022 23.2022C22.2645 24.1399 20.9927 24.6667 19.6667 24.6667C18.3406 24.6667 17.0688 24.1399 16.1311 23.2022C15.1934 22.2645 14.6667 20.9927 14.6667 19.6667C14.6667 18.3406 15.1934 17.0688 16.1311 16.1311C17.0688 15.1934 18.3406 14.6667 19.6667 14.6667Z" fill="#6FC3AA"/>
</svg>
