<svg width="40" height="40" viewBox="0 0 40 40" fill="none" xmlns="http://www.w3.org/2000/svg">
<path d="M20.6666 2.6665C10.7264 2.6665 2.66663 10.7263 2.66663 20.6665C2.66663 30.6067 10.7264 38.6665 20.6666 38.6665C30.6068 38.6665 38.6666 30.6067 38.6666 20.6665C38.6666 10.7263 30.6068 2.6665 20.6666 2.6665ZM29.3171 16.2348C29.3291 16.4236 29.3291 16.6205 29.3291 16.8134C29.3291 22.7116 24.8372 29.5058 16.6287 29.5058C14.0974 29.5058 11.751 28.7705 9.77421 27.5049C10.1358 27.5451 10.4814 27.5611 10.851 27.5611C12.9403 27.5611 14.8608 26.854 16.3916 25.6567C14.4309 25.6165 12.7836 24.3308 12.2211 22.5629C12.9081 22.6634 13.5269 22.6634 14.234 22.4826C13.2245 22.2775 12.317 21.7292 11.6659 20.9308C11.0148 20.1325 10.6601 19.1333 10.6622 18.1031V18.0469C11.2528 18.3803 11.9479 18.5853 12.6751 18.6134C12.0638 18.2059 11.5624 17.654 11.2155 17.0064C10.8685 16.3588 10.6868 15.6356 10.6863 14.9009C10.6863 14.0692 10.9032 13.3098 11.293 12.6509C12.4136 14.0304 13.8119 15.1586 15.3971 15.9623C16.9822 16.7659 18.7188 17.227 20.4939 17.3156C19.8631 14.2821 22.1291 11.8272 24.8532 11.8272C26.1389 11.8272 27.2961 12.3656 28.1117 13.2335C29.1202 13.0446 30.0845 12.6669 30.9443 12.1607C30.6108 13.1933 29.9117 14.0652 28.9836 14.6156C29.8836 14.5192 30.7514 14.2701 31.555 13.9205C30.9483 14.8125 30.1889 15.604 29.3171 16.2348Z" fill="#6FC3AA"/>
</svg>
